<?xml version="1.0" encoding="UTF-8" standalone="no"?>
<!DOCTYPE svg PUBLIC "-//W3C//DTD SVG 1.1//EN"
 "http://www.w3.org/Graphics/SVG/1.1/DTD/svg11.dtd">
<!-- Generated by graphviz version 11.0.0 (20240519.1550)
 -->
<!-- Pages: 1 -->
<svg width="243pt" height="494pt"
 viewBox="0.00 0.00 242.60 494.27" xmlns="http://www.w3.org/2000/svg" xmlns:xlink="http://www.w3.org/1999/xlink">
<g id="graph0" class="graph" transform="scale(1 1) rotate(0) translate(4 490.27)">
<polygon fill="white" stroke="none" points="-4,4 -4,-490.27 238.6,-490.27 238.6,4 -4,4"/>
<g id="clust1" class="cluster">
<title>clusterpos (4)</title>
<path fill="none" stroke="black" d="M61.6,-255.13C61.6,-255.13 214.6,-255.13 214.6,-255.13 220.6,-255.13 226.6,-261.13 226.6,-267.13 226.6,-267.13 226.6,-364.95 226.6,-364.95 226.6,-370.95 220.6,-376.95 214.6,-376.95 214.6,-376.95 61.6,-376.95 61.6,-376.95 55.6,-376.95 49.6,-370.95 49.6,-364.95 49.6,-364.95 49.6,-267.13 49.6,-267.13 49.6,-261.13 55.6,-255.13 61.6,-255.13"/>
<text text-anchor="middle" x="199.48" y="-262.33" font-family="Times,serif" font-size="14.00">pos (4)</text>
</g>
<g id="clust2" class="cluster">
<title>cluster2682</title>
<path fill="none" stroke="black" d="M90.6,-8C90.6,-8 176.6,-8 176.6,-8 182.6,-8 188.6,-14 188.6,-20 188.6,-20 188.6,-235.13 188.6,-235.13 188.6,-241.13 182.6,-247.13 176.6,-247.13 176.6,-247.13 90.6,-247.13 90.6,-247.13 84.6,-247.13 78.6,-241.13 78.6,-235.13 78.6,-235.13 78.6,-20 78.6,-20 78.6,-14 84.6,-8 90.6,-8"/>
<text text-anchor="middle" x="167.1" y="-15.2" font-family="Times,serif" font-size="14.00">2682</text>
</g>
<!-- ν -->
<g id="node1" class="node">
<title>ν</title>
<ellipse fill="none" stroke="black" cx="42.6" cy="-445.61" rx="42.6" ry="40.66"/>
<text text-anchor="middle" x="42.6" y="-457.06" font-family="Times,serif" font-size="14.00">ν</text>
<text text-anchor="middle" x="42.6" y="-440.56" font-family="Times,serif" font-size="14.00">~</text>
<text text-anchor="middle" x="42.6" y="-424.06" font-family="Times,serif" font-size="14.00">Gamma</text>
</g>
<!-- μ_p -->
<g id="node3" class="node">
<title>μ_p</title>
<ellipse fill="none" stroke="black" cx="86.6" cy="-328.29" rx="28.81" ry="40.66"/>
<text text-anchor="middle" x="86.6" y="-339.74" font-family="Times,serif" font-size="14.00">μ_p</text>
<text text-anchor="middle" x="86.6" y="-323.24" font-family="Times,serif" font-size="14.00">~</text>
<text text-anchor="middle" x="86.6" y="-306.74" font-family="Times,serif" font-size="14.00">Beta</text>
</g>
<!-- ν&#45;&gt;μ_p -->
<g id="edge1" class="edge">
<title>ν&#45;&gt;μ_p</title>
<path fill="none" stroke="black" d="M57.01,-406.85C60.84,-396.81 65.02,-385.85 69.01,-375.41"/>
<polygon fill="black" stroke="black" points="72.23,-376.79 72.52,-366.2 65.69,-374.3 72.23,-376.79"/>
</g>
<!-- μ -->
<g id="node2" class="node">
<title>μ</title>
<ellipse fill="none" stroke="black" cx="131.6" cy="-445.61" rx="28.81" ry="40.66"/>
<text text-anchor="middle" x="131.6" y="-457.06" font-family="Times,serif" font-size="14.00">μ</text>
<text text-anchor="middle" x="131.6" y="-440.56" font-family="Times,serif" font-size="14.00">~</text>
<text text-anchor="middle" x="131.6" y="-424.06" font-family="Times,serif" font-size="14.00">Beta</text>
</g>
<!-- μ&#45;&gt;μ_p -->
<g id="edge2" class="edge">
<title>μ&#45;&gt;μ_p</title>
<path fill="none" stroke="black" d="M117.86,-409.38C113.63,-398.54 108.91,-386.45 104.44,-375.01"/>
<polygon fill="black" stroke="black" points="107.71,-373.76 100.82,-365.71 101.19,-376.3 107.71,-373.76"/>
</g>
<!-- θ -->
<g id="node5" class="node">
<title>θ</title>
<ellipse fill="none" stroke="black" cx="133.6" cy="-198.48" rx="28.81" ry="40.66"/>
<text text-anchor="middle" x="133.6" y="-209.93" font-family="Times,serif" font-size="14.00">θ</text>
<text text-anchor="middle" x="133.6" y="-193.43" font-family="Times,serif" font-size="14.00">~</text>
<text text-anchor="middle" x="133.6" y="-176.93" font-family="Times,serif" font-size="14.00">Beta</text>
</g>
<!-- μ_p&#45;&gt;θ -->
<g id="edge3" class="edge">
<title>μ_p&#45;&gt;θ</title>
<path fill="none" stroke="black" d="M99.7,-291.69C104.94,-277.42 111.05,-260.8 116.63,-245.63"/>
<polygon fill="black" stroke="black" points="119.89,-246.9 120.06,-236.31 113.32,-244.49 119.89,-246.9"/>
</g>
<!-- ν_p -->
<g id="node4" class="node">
<title>ν_p</title>
<ellipse fill="none" stroke="black" cx="175.6" cy="-328.29" rx="42.6" ry="40.66"/>
<text text-anchor="middle" x="175.6" y="-339.74" font-family="Times,serif" font-size="14.00">ν_p</text>
<text text-anchor="middle" x="175.6" y="-323.24" font-family="Times,serif" font-size="14.00">~</text>
<text text-anchor="middle" x="175.6" y="-306.74" font-family="Times,serif" font-size="14.00">Gamma</text>
</g>
<!-- ν_p&#45;&gt;θ -->
<g id="edge4" class="edge">
<title>ν_p&#45;&gt;θ</title>
<path fill="none" stroke="black" d="M163,-288.94C158.62,-275.6 153.65,-260.47 149.06,-246.51"/>
<polygon fill="black" stroke="black" points="152.4,-245.45 145.95,-237.05 145.75,-247.64 152.4,-245.45"/>
</g>
<!-- gs -->
<g id="node6" class="node">
<title>gs</title>
<ellipse fill="lightgrey" stroke="black" cx="133.6" cy="-81.16" rx="47.38" ry="40.66"/>
<text text-anchor="middle" x="133.6" y="-92.61" font-family="Times,serif" font-size="14.00">gs</text>
<text text-anchor="middle" x="133.6" y="-76.11" font-family="Times,serif" font-size="14.00">~</text>
<text text-anchor="middle" x="133.6" y="-59.61" font-family="Times,serif" font-size="14.00">Binomial</text>
</g>
<!-- θ&#45;&gt;gs -->
<g id="edge5" class="edge">
<title>θ&#45;&gt;gs</title>
<path fill="none" stroke="black" d="M133.6,-157.47C133.6,-149.69 133.6,-141.43 133.6,-133.34"/>
<polygon fill="black" stroke="black" points="137.1,-133.61 133.6,-123.61 130.1,-133.61 137.1,-133.61"/>
</g>
</g>
</svg>
