<?xml version="1.0" encoding="UTF-8" standalone="no"?>
<!DOCTYPE svg PUBLIC "-//W3C//DTD SVG 1.1//EN"
 "http://www.w3.org/Graphics/SVG/1.1/DTD/svg11.dtd">
<!-- Generated by graphviz version 2.50.0 (0)
 -->
<!-- Pages: 1 -->
<svg width="226pt" height="444pt"
 viewBox="0.00 0.00 226.41 443.86" xmlns="http://www.w3.org/2000/svg" xmlns:xlink="http://www.w3.org/1999/xlink">
<g id="graph0" class="graph" transform="scale(1 1) rotate(0) translate(4 439.86)">
<polygon fill="white" stroke="transparent" points="-4,4 -4,-439.86 222.41,-439.86 222.41,4 -4,4"/>
<g id="clust1" class="cluster">
<title>clustertanks (48)</title>
<path fill="none" stroke="black" d="M57.72,-218.95C57.72,-218.95 143.72,-218.95 143.72,-218.95 149.72,-218.95 155.72,-224.95 155.72,-230.95 155.72,-230.95 155.72,-320.91 155.72,-320.91 155.72,-326.91 149.72,-332.91 143.72,-332.91 143.72,-332.91 57.72,-332.91 57.72,-332.91 51.72,-332.91 45.72,-326.91 45.72,-320.91 45.72,-320.91 45.72,-230.95 45.72,-230.95 45.72,-224.95 51.72,-218.95 57.72,-218.95"/>
<text text-anchor="middle" x="120.22" y="-226.75" font-family="Times,serif" font-size="14.00">tanks (48)</text>
</g>
<g id="clust2" class="cluster">
<title>cluster48</title>
<path fill="none" stroke="black" d="M56.72,-8C56.72,-8 144.72,-8 144.72,-8 150.72,-8 156.72,-14 156.72,-20 156.72,-20 156.72,-198.95 156.72,-198.95 156.72,-204.95 150.72,-210.95 144.72,-210.95 144.72,-210.95 56.72,-210.95 56.72,-210.95 50.72,-210.95 44.72,-204.95 44.72,-198.95 44.72,-198.95 44.72,-20 44.72,-20 44.72,-14 50.72,-8 56.72,-8"/>
<text text-anchor="middle" x="141.72" y="-15.8" font-family="Times,serif" font-size="14.00">48</text>
</g>
<!-- μ -->
<g id="node1" class="node">
<title>μ</title>
<ellipse fill="none" stroke="black" cx="41.72" cy="-398.38" rx="41.94" ry="37.45"/>
<text text-anchor="middle" x="41.72" y="-409.68" font-family="Times,serif" font-size="14.00">μ</text>
<text text-anchor="middle" x="41.72" y="-394.68" font-family="Times,serif" font-size="14.00">~</text>
<text text-anchor="middle" x="41.72" y="-379.68" font-family="Times,serif" font-size="14.00">Normal</text>
</g>
<!-- α_tanque -->
<g id="node3" class="node">
<title>α_tanque</title>
<ellipse fill="none" stroke="black" cx="100.72" cy="-287.43" rx="47.25" ry="37.45"/>
<text text-anchor="middle" x="100.72" y="-298.73" font-family="Times,serif" font-size="14.00">α_tanque</text>
<text text-anchor="middle" x="100.72" y="-283.73" font-family="Times,serif" font-size="14.00">~</text>
<text text-anchor="middle" x="100.72" y="-268.73" font-family="Times,serif" font-size="14.00">Normal</text>
</g>
<!-- μ&#45;&gt;α_tanque -->
<g id="edge1" class="edge">
<title>μ&#45;&gt;α_tanque</title>
<path fill="none" stroke="black" d="M59.58,-364.4C65.25,-353.93 71.61,-342.19 77.59,-331.14"/>
<polygon fill="black" stroke="black" points="80.83,-332.52 82.51,-322.06 74.67,-329.18 80.83,-332.52"/>
</g>
<!-- σ -->
<g id="node2" class="node">
<title>σ</title>
<ellipse fill="none" stroke="black" cx="159.72" cy="-398.38" rx="58.88" ry="37.45"/>
<text text-anchor="middle" x="159.72" y="-409.68" font-family="Times,serif" font-size="14.00">σ</text>
<text text-anchor="middle" x="159.72" y="-394.68" font-family="Times,serif" font-size="14.00">~</text>
<text text-anchor="middle" x="159.72" y="-379.68" font-family="Times,serif" font-size="14.00">HalfNormal</text>
</g>
<!-- σ&#45;&gt;α_tanque -->
<g id="edge2" class="edge">
<title>σ&#45;&gt;α_tanque</title>
<path fill="none" stroke="black" d="M140.89,-362.61C135.46,-352.59 129.48,-341.54 123.83,-331.11"/>
<polygon fill="black" stroke="black" points="126.81,-329.26 118.97,-322.13 120.65,-332.59 126.81,-329.26"/>
</g>
<!-- p -->
<g id="node4" class="node">
<title>p</title>
<polygon fill="none" stroke="black" points="146.22,-202.95 55.22,-202.95 55.22,-149.95 146.22,-149.95 146.22,-202.95"/>
<text text-anchor="middle" x="100.72" y="-187.75" font-family="Times,serif" font-size="14.00">p</text>
<text text-anchor="middle" x="100.72" y="-172.75" font-family="Times,serif" font-size="14.00">~</text>
<text text-anchor="middle" x="100.72" y="-157.75" font-family="Times,serif" font-size="14.00">Deterministic</text>
</g>
<!-- α_tanque&#45;&gt;p -->
<g id="edge3" class="edge">
<title>α_tanque&#45;&gt;p</title>
<path fill="none" stroke="black" d="M100.72,-249.84C100.72,-238.1 100.72,-225.11 100.72,-213.42"/>
<polygon fill="black" stroke="black" points="104.22,-213.11 100.72,-203.11 97.22,-213.11 104.22,-213.11"/>
</g>
<!-- surv -->
<g id="node5" class="node">
<title>surv</title>
<ellipse fill="lightgrey" stroke="black" cx="100.72" cy="-76.48" rx="48.17" ry="37.45"/>
<text text-anchor="middle" x="100.72" y="-87.78" font-family="Times,serif" font-size="14.00">surv</text>
<text text-anchor="middle" x="100.72" y="-72.78" font-family="Times,serif" font-size="14.00">~</text>
<text text-anchor="middle" x="100.72" y="-57.78" font-family="Times,serif" font-size="14.00">Binomial</text>
</g>
<!-- p&#45;&gt;surv -->
<g id="edge4" class="edge">
<title>p&#45;&gt;surv</title>
<path fill="none" stroke="black" d="M100.72,-149.71C100.72,-141.89 100.72,-133.03 100.72,-124.27"/>
<polygon fill="black" stroke="black" points="104.22,-124.1 100.72,-114.1 97.22,-124.1 104.22,-124.1"/>
</g>
</g>
</svg>
