<?xml version="1.0" encoding="UTF-8" standalone="no"?>
<!DOCTYPE svg PUBLIC "-//W3C//DTD SVG 1.1//EN"
 "http://www.w3.org/Graphics/SVG/1.1/DTD/svg11.dtd">
<!-- Generated by graphviz version 11.0.0 (20240519.1550)
 -->
<!-- Pages: 1 -->
<svg width="264pt" height="484pt"
 viewBox="0.00 0.00 264.15 483.75" xmlns="http://www.w3.org/2000/svg" xmlns:xlink="http://www.w3.org/1999/xlink">
<g id="graph0" class="graph" transform="scale(1 1) rotate(0) translate(4 479.75)">
<polygon fill="white" stroke="none" points="-4,4 -4,-479.75 260.15,-479.75 260.15,4 -4,4"/>
<g id="clust1" class="cluster">
<title>clustertanks (48)</title>
<path fill="none" stroke="black" d="M85.18,-237.5C85.18,-237.5 193.18,-237.5 193.18,-237.5 199.18,-237.5 205.18,-243.5 205.18,-249.5 205.18,-249.5 205.18,-351.25 205.18,-351.25 205.18,-357.25 199.18,-363.25 193.18,-363.25 193.18,-363.25 85.18,-363.25 85.18,-363.25 79.18,-363.25 73.18,-357.25 73.18,-351.25 73.18,-351.25 73.18,-249.5 73.18,-249.5 73.18,-243.5 79.18,-237.5 85.18,-237.5"/>
<text text-anchor="middle" x="161.18" y="-245.45" font-family="Times,serif" font-size="14.00">tanks (48)</text>
</g>
<g id="clust2" class="cluster">
<title>cluster48</title>
<path fill="none" stroke="black" d="M86.18,-8C86.18,-8 192.18,-8 192.18,-8 198.18,-8 204.18,-14 204.18,-20 204.18,-20 204.18,-217.5 204.18,-217.5 204.18,-223.5 198.18,-229.5 192.18,-229.5 192.18,-229.5 86.18,-229.5 86.18,-229.5 80.18,-229.5 74.18,-223.5 74.18,-217.5 74.18,-217.5 74.18,-20 74.18,-20 74.18,-14 80.18,-8 86.18,-8"/>
<text text-anchor="middle" x="187.18" y="-15.95" font-family="Times,serif" font-size="14.00">48</text>
</g>
<!-- σ -->
<g id="node1" class="node">
<title>σ</title>
<ellipse fill="none" stroke="black" cx="70.18" cy="-433.5" rx="70.18" ry="42.25"/>
<text text-anchor="middle" x="70.18" y="-446.07" font-family="Times,serif" font-size="14.00">σ</text>
<text text-anchor="middle" x="70.18" y="-428.82" font-family="Times,serif" font-size="14.00">~</text>
<text text-anchor="middle" x="70.18" y="-411.57" font-family="Times,serif" font-size="14.00">HalfNormal</text>
</g>
<!-- α_tanque -->
<g id="node3" class="node">
<title>α_tanque</title>
<ellipse fill="none" stroke="black" cx="139.18" cy="-313" rx="57.98" ry="42.25"/>
<text text-anchor="middle" x="139.18" y="-325.57" font-family="Times,serif" font-size="14.00">α_tanque</text>
<text text-anchor="middle" x="139.18" y="-308.32" font-family="Times,serif" font-size="14.00">~</text>
<text text-anchor="middle" x="139.18" y="-291.07" font-family="Times,serif" font-size="14.00">Normal</text>
</g>
<!-- σ&#45;&gt;α_tanque -->
<g id="edge1" class="edge">
<title>σ&#45;&gt;α_tanque</title>
<path fill="none" stroke="black" d="M92.96,-393.37C98.8,-383.36 105.13,-372.47 111.19,-362.07"/>
<polygon fill="black" stroke="black" points="114.12,-363.99 116.13,-353.59 108.07,-360.47 114.12,-363.99"/>
</g>
<!-- μ -->
<g id="node2" class="node">
<title>μ</title>
<ellipse fill="none" stroke="black" cx="207.18" cy="-433.5" rx="48.97" ry="42.25"/>
<text text-anchor="middle" x="207.18" y="-446.07" font-family="Times,serif" font-size="14.00">μ</text>
<text text-anchor="middle" x="207.18" y="-428.82" font-family="Times,serif" font-size="14.00">~</text>
<text text-anchor="middle" x="207.18" y="-411.57" font-family="Times,serif" font-size="14.00">Normal</text>
</g>
<!-- μ&#45;&gt;α_tanque -->
<g id="edge2" class="edge">
<title>μ&#45;&gt;α_tanque</title>
<path fill="none" stroke="black" d="M185.66,-395C179.71,-384.62 173.15,-373.2 166.9,-362.3"/>
<polygon fill="black" stroke="black" points="170.02,-360.72 162.01,-353.78 163.95,-364.2 170.02,-360.72"/>
</g>
<!-- p -->
<g id="node5" class="node">
<title>p</title>
<polygon fill="none" stroke="black" points="195.93,-221.5 82.43,-221.5 82.43,-161.75 195.93,-161.75 195.93,-221.5"/>
<text text-anchor="middle" x="139.18" y="-204.2" font-family="Times,serif" font-size="14.00">p</text>
<text text-anchor="middle" x="139.18" y="-186.95" font-family="Times,serif" font-size="14.00">~</text>
<text text-anchor="middle" x="139.18" y="-169.7" font-family="Times,serif" font-size="14.00">Deterministic</text>
</g>
<!-- α_tanque&#45;&gt;p -->
<g id="edge3" class="edge">
<title>α_tanque&#45;&gt;p</title>
<path fill="none" stroke="black" d="M139.18,-270.58C139.18,-258.44 139.18,-245.17 139.18,-233.09"/>
<polygon fill="black" stroke="black" points="142.68,-233.45 139.18,-223.45 135.68,-233.45 142.68,-233.45"/>
</g>
<!-- surv -->
<g id="node4" class="node">
<title>surv</title>
<ellipse fill="lightgrey" stroke="black" cx="139.18" cy="-83.5" rx="55.86" ry="42.25"/>
<text text-anchor="middle" x="139.18" y="-96.07" font-family="Times,serif" font-size="14.00">surv</text>
<text text-anchor="middle" x="139.18" y="-78.82" font-family="Times,serif" font-size="14.00">~</text>
<text text-anchor="middle" x="139.18" y="-61.57" font-family="Times,serif" font-size="14.00">Binomial</text>
</g>
<!-- p&#45;&gt;surv -->
<g id="edge4" class="edge">
<title>p&#45;&gt;surv</title>
<path fill="none" stroke="black" d="M139.18,-161.34C139.18,-153.84 139.18,-145.53 139.18,-137.23"/>
<polygon fill="black" stroke="black" points="142.68,-137.51 139.18,-127.51 135.68,-137.51 142.68,-137.51"/>
</g>
</g>
</svg>
