<?xml version="1.0" encoding="UTF-8" standalone="no"?>
<!DOCTYPE svg PUBLIC "-//W3C//DTD SVG 1.1//EN"
 "http://www.w3.org/Graphics/SVG/1.1/DTD/svg11.dtd">
<!-- Generated by graphviz version 11.0.0 (20240519.1550)
 -->
<!-- Pages: 1 -->
<svg width="229pt" height="494pt"
 viewBox="0.00 0.00 228.81 494.27" xmlns="http://www.w3.org/2000/svg" xmlns:xlink="http://www.w3.org/1999/xlink">
<g id="graph0" class="graph" transform="scale(1 1) rotate(0) translate(4 490.27)">
<polygon fill="white" stroke="none" points="-4,4 -4,-490.27 224.81,-490.27 224.81,4 -4,4"/>
<g id="clust1" class="cluster">
<title>clusterpos (4)</title>
<path fill="none" stroke="black" d="M47.81,-255.13C47.81,-255.13 200.81,-255.13 200.81,-255.13 206.81,-255.13 212.81,-261.13 212.81,-267.13 212.81,-267.13 212.81,-364.95 212.81,-364.95 212.81,-370.95 206.81,-376.95 200.81,-376.95 200.81,-376.95 47.81,-376.95 47.81,-376.95 41.81,-376.95 35.81,-370.95 35.81,-364.95 35.81,-364.95 35.81,-267.13 35.81,-267.13 35.81,-261.13 41.81,-255.13 47.81,-255.13"/>
<text text-anchor="middle" x="185.69" y="-262.33" font-family="Times,serif" font-size="14.00">pos (4)</text>
</g>
<g id="clust2" class="cluster">
<title>cluster2682</title>
<path fill="none" stroke="black" d="M76.81,-8C76.81,-8 162.81,-8 162.81,-8 168.81,-8 174.81,-14 174.81,-20 174.81,-20 174.81,-235.13 174.81,-235.13 174.81,-241.13 168.81,-247.13 162.81,-247.13 162.81,-247.13 76.81,-247.13 76.81,-247.13 70.81,-247.13 64.81,-241.13 64.81,-235.13 64.81,-235.13 64.81,-20 64.81,-20 64.81,-14 70.81,-8 76.81,-8"/>
<text text-anchor="middle" x="153.31" y="-15.2" font-family="Times,serif" font-size="14.00">2682</text>
</g>
<!-- μ -->
<g id="node1" class="node">
<title>μ</title>
<ellipse fill="none" stroke="black" cx="28.81" cy="-445.61" rx="28.81" ry="40.66"/>
<text text-anchor="middle" x="28.81" y="-457.06" font-family="Times,serif" font-size="14.00">μ</text>
<text text-anchor="middle" x="28.81" y="-440.56" font-family="Times,serif" font-size="14.00">~</text>
<text text-anchor="middle" x="28.81" y="-424.06" font-family="Times,serif" font-size="14.00">Beta</text>
</g>
<!-- μ_p -->
<g id="node3" class="node">
<title>μ_p</title>
<ellipse fill="none" stroke="black" cx="72.81" cy="-328.29" rx="28.81" ry="40.66"/>
<text text-anchor="middle" x="72.81" y="-339.74" font-family="Times,serif" font-size="14.00">μ_p</text>
<text text-anchor="middle" x="72.81" y="-323.24" font-family="Times,serif" font-size="14.00">~</text>
<text text-anchor="middle" x="72.81" y="-306.74" font-family="Times,serif" font-size="14.00">Beta</text>
</g>
<!-- μ&#45;&gt;μ_p -->
<g id="edge1" class="edge">
<title>μ&#45;&gt;μ_p</title>
<path fill="none" stroke="black" d="M42.26,-409.38C46.35,-398.64 50.92,-386.67 55.25,-375.33"/>
<polygon fill="black" stroke="black" points="58.47,-376.71 58.77,-366.11 51.93,-374.21 58.47,-376.71"/>
</g>
<!-- ν -->
<g id="node2" class="node">
<title>ν</title>
<ellipse fill="none" stroke="black" cx="117.81" cy="-445.61" rx="42.6" ry="40.66"/>
<text text-anchor="middle" x="117.81" y="-457.06" font-family="Times,serif" font-size="14.00">ν</text>
<text text-anchor="middle" x="117.81" y="-440.56" font-family="Times,serif" font-size="14.00">~</text>
<text text-anchor="middle" x="117.81" y="-424.06" font-family="Times,serif" font-size="14.00">Gamma</text>
</g>
<!-- ν&#45;&gt;μ_p -->
<g id="edge2" class="edge">
<title>ν&#45;&gt;μ_p</title>
<path fill="none" stroke="black" d="M103.2,-407.17C99.2,-396.91 94.82,-385.67 90.65,-375.01"/>
<polygon fill="black" stroke="black" points="94.03,-374.04 87.14,-366 87.51,-376.59 94.03,-374.04"/>
</g>
<!-- θ -->
<g id="node6" class="node">
<title>θ</title>
<ellipse fill="none" stroke="black" cx="119.81" cy="-198.48" rx="28.81" ry="40.66"/>
<text text-anchor="middle" x="119.81" y="-209.93" font-family="Times,serif" font-size="14.00">θ</text>
<text text-anchor="middle" x="119.81" y="-193.43" font-family="Times,serif" font-size="14.00">~</text>
<text text-anchor="middle" x="119.81" y="-176.93" font-family="Times,serif" font-size="14.00">Beta</text>
</g>
<!-- μ_p&#45;&gt;θ -->
<g id="edge3" class="edge">
<title>μ_p&#45;&gt;θ</title>
<path fill="none" stroke="black" d="M85.91,-291.69C91.15,-277.42 97.27,-260.8 102.84,-245.63"/>
<polygon fill="black" stroke="black" points="106.1,-246.9 106.27,-236.31 99.53,-244.49 106.1,-246.9"/>
</g>
<!-- ν_p -->
<g id="node4" class="node">
<title>ν_p</title>
<ellipse fill="none" stroke="black" cx="161.81" cy="-328.29" rx="42.6" ry="40.66"/>
<text text-anchor="middle" x="161.81" y="-339.74" font-family="Times,serif" font-size="14.00">ν_p</text>
<text text-anchor="middle" x="161.81" y="-323.24" font-family="Times,serif" font-size="14.00">~</text>
<text text-anchor="middle" x="161.81" y="-306.74" font-family="Times,serif" font-size="14.00">Gamma</text>
</g>
<!-- ν_p&#45;&gt;θ -->
<g id="edge4" class="edge">
<title>ν_p&#45;&gt;θ</title>
<path fill="none" stroke="black" d="M149.21,-288.94C144.83,-275.6 139.86,-260.47 135.27,-246.51"/>
<polygon fill="black" stroke="black" points="138.61,-245.45 132.16,-237.05 131.96,-247.64 138.61,-245.45"/>
</g>
<!-- gs -->
<g id="node5" class="node">
<title>gs</title>
<ellipse fill="lightgrey" stroke="black" cx="119.81" cy="-81.16" rx="47.38" ry="40.66"/>
<text text-anchor="middle" x="119.81" y="-92.61" font-family="Times,serif" font-size="14.00">gs</text>
<text text-anchor="middle" x="119.81" y="-76.11" font-family="Times,serif" font-size="14.00">~</text>
<text text-anchor="middle" x="119.81" y="-59.61" font-family="Times,serif" font-size="14.00">Binomial</text>
</g>
<!-- θ&#45;&gt;gs -->
<g id="edge5" class="edge">
<title>θ&#45;&gt;gs</title>
<path fill="none" stroke="black" d="M119.81,-157.47C119.81,-149.69 119.81,-141.43 119.81,-133.34"/>
<polygon fill="black" stroke="black" points="123.31,-133.61 119.81,-123.61 116.31,-133.61 123.31,-133.61"/>
</g>
</g>
</svg>
