<?xml version="1.0" encoding="UTF-8" standalone="no"?>
<!DOCTYPE svg PUBLIC "-//W3C//DTD SVG 1.1//EN"
 "http://www.w3.org/Graphics/SVG/1.1/DTD/svg11.dtd">
<!-- Generated by graphviz version 2.50.0 (0)
 -->
<!-- Pages: 1 -->
<svg width="231pt" height="466pt"
 viewBox="0.00 0.00 230.99 465.81" xmlns="http://www.w3.org/2000/svg" xmlns:xlink="http://www.w3.org/1999/xlink">
<g id="graph0" class="graph" transform="scale(1 1) rotate(0) translate(4 461.81)">
<polygon fill="white" stroke="transparent" points="-4,4 -4,-461.81 226.99,-461.81 226.99,4 -4,4"/>
<g id="clust1" class="cluster">
<title>clusterpos (4)</title>
<path fill="none" stroke="black" d="M48.99,-240.91C48.99,-240.91 202.99,-240.91 202.99,-240.91 208.99,-240.91 214.99,-246.91 214.99,-252.91 214.99,-252.91 214.99,-342.86 214.99,-342.86 214.99,-348.86 208.99,-354.86 202.99,-354.86 202.99,-354.86 48.99,-354.86 48.99,-354.86 42.99,-354.86 36.99,-348.86 36.99,-342.86 36.99,-342.86 36.99,-252.91 36.99,-252.91 36.99,-246.91 42.99,-240.91 48.99,-240.91"/>
<text text-anchor="middle" x="187.49" y="-248.71" font-family="Times,serif" font-size="14.00">pos (4)</text>
</g>
<g id="clust2" class="cluster">
<title>cluster2682</title>
<path fill="none" stroke="black" d="M76.99,-8C76.99,-8 164.99,-8 164.99,-8 170.99,-8 176.99,-14 176.99,-20 176.99,-20 176.99,-220.91 176.99,-220.91 176.99,-226.91 170.99,-232.91 164.99,-232.91 164.99,-232.91 76.99,-232.91 76.99,-232.91 70.99,-232.91 64.99,-226.91 64.99,-220.91 64.99,-220.91 64.99,-20 64.99,-20 64.99,-14 70.99,-8 76.99,-8"/>
<text text-anchor="middle" x="154.99" y="-15.8" font-family="Times,serif" font-size="14.00">2682</text>
</g>
<!-- μ -->
<g id="node1" class="node">
<title>μ</title>
<ellipse fill="none" stroke="black" cx="28.99" cy="-420.34" rx="28.98" ry="37.45"/>
<text text-anchor="middle" x="28.99" y="-431.64" font-family="Times,serif" font-size="14.00">μ</text>
<text text-anchor="middle" x="28.99" y="-416.64" font-family="Times,serif" font-size="14.00">~</text>
<text text-anchor="middle" x="28.99" y="-401.64" font-family="Times,serif" font-size="14.00">Beta</text>
</g>
<!-- μ_p -->
<g id="node4" class="node">
<title>μ_p</title>
<ellipse fill="none" stroke="black" cx="73.99" cy="-309.38" rx="28.98" ry="37.45"/>
<text text-anchor="middle" x="73.99" y="-320.68" font-family="Times,serif" font-size="14.00">μ_p</text>
<text text-anchor="middle" x="73.99" y="-305.68" font-family="Times,serif" font-size="14.00">~</text>
<text text-anchor="middle" x="73.99" y="-290.68" font-family="Times,serif" font-size="14.00">Beta</text>
</g>
<!-- μ&#45;&gt;μ_p -->
<g id="edge1" class="edge">
<title>μ&#45;&gt;μ_p</title>
<path fill="none" stroke="black" d="M42.37,-386.94C46.86,-376.06 51.94,-363.77 56.69,-352.27"/>
<polygon fill="black" stroke="black" points="60,-353.42 60.59,-342.84 53.53,-350.75 60,-353.42"/>
</g>
<!-- ν -->
<g id="node2" class="node">
<title>ν</title>
<ellipse fill="none" stroke="black" cx="118.99" cy="-420.34" rx="43.27" ry="37.45"/>
<text text-anchor="middle" x="118.99" y="-431.64" font-family="Times,serif" font-size="14.00">ν</text>
<text text-anchor="middle" x="118.99" y="-416.64" font-family="Times,serif" font-size="14.00">~</text>
<text text-anchor="middle" x="118.99" y="-401.64" font-family="Times,serif" font-size="14.00">Gamma</text>
</g>
<!-- ν&#45;&gt;μ_p -->
<g id="edge2" class="edge">
<title>ν&#45;&gt;μ_p</title>
<path fill="none" stroke="black" d="M104.75,-384.86C100.45,-374.45 95.68,-362.9 91.21,-352.07"/>
<polygon fill="black" stroke="black" points="94.42,-350.68 87.37,-342.78 87.95,-353.36 94.42,-350.68"/>
</g>
<!-- ν_p -->
<g id="node3" class="node">
<title>ν_p</title>
<ellipse fill="none" stroke="black" cx="163.99" cy="-309.38" rx="43.27" ry="37.45"/>
<text text-anchor="middle" x="163.99" y="-320.68" font-family="Times,serif" font-size="14.00">ν_p</text>
<text text-anchor="middle" x="163.99" y="-305.68" font-family="Times,serif" font-size="14.00">~</text>
<text text-anchor="middle" x="163.99" y="-290.68" font-family="Times,serif" font-size="14.00">Gamma</text>
</g>
<!-- θ -->
<g id="node6" class="node">
<title>θ</title>
<ellipse fill="none" stroke="black" cx="120.99" cy="-187.43" rx="28.98" ry="37.45"/>
<text text-anchor="middle" x="120.99" y="-198.73" font-family="Times,serif" font-size="14.00">θ</text>
<text text-anchor="middle" x="120.99" y="-183.73" font-family="Times,serif" font-size="14.00">~</text>
<text text-anchor="middle" x="120.99" y="-168.73" font-family="Times,serif" font-size="14.00">Beta</text>
</g>
<!-- ν_p&#45;&gt;θ -->
<g id="edge4" class="edge">
<title>ν_p&#45;&gt;θ</title>
<path fill="none" stroke="black" d="M151.44,-273.37C146.73,-260.23 141.33,-245.16 136.39,-231.39"/>
<polygon fill="black" stroke="black" points="139.56,-229.87 132.9,-221.64 132.98,-232.23 139.56,-229.87"/>
</g>
<!-- μ_p&#45;&gt;θ -->
<g id="edge3" class="edge">
<title>μ_p&#45;&gt;θ</title>
<path fill="none" stroke="black" d="M86.83,-275.61C92.27,-261.72 98.68,-245.37 104.47,-230.6"/>
<polygon fill="black" stroke="black" points="107.77,-231.76 108.16,-221.17 101.26,-229.2 107.77,-231.76"/>
</g>
<!-- gs -->
<g id="node5" class="node">
<title>gs</title>
<ellipse fill="lightgrey" stroke="black" cx="120.99" cy="-76.48" rx="48.17" ry="37.45"/>
<text text-anchor="middle" x="120.99" y="-87.78" font-family="Times,serif" font-size="14.00">gs</text>
<text text-anchor="middle" x="120.99" y="-72.78" font-family="Times,serif" font-size="14.00">~</text>
<text text-anchor="middle" x="120.99" y="-57.78" font-family="Times,serif" font-size="14.00">Binomial</text>
</g>
<!-- θ&#45;&gt;gs -->
<g id="edge5" class="edge">
<title>θ&#45;&gt;gs</title>
<path fill="none" stroke="black" d="M120.99,-149.85C120.99,-141.67 120.99,-132.89 120.99,-124.37"/>
<polygon fill="black" stroke="black" points="124.49,-124.15 120.99,-114.15 117.49,-124.15 124.49,-124.15"/>
</g>
</g>
</svg>
