<?xml version="1.0" encoding="UTF-8" standalone="no"?>
<!DOCTYPE svg PUBLIC "-//W3C//DTD SVG 1.1//EN"
 "http://www.w3.org/Graphics/SVG/1.1/DTD/svg11.dtd">
<!-- Generated by graphviz version 11.0.0 (20240519.1550)
 -->
<!-- Pages: 1 -->
<svg width="231pt" height="494pt"
 viewBox="0.00 0.00 230.81 494.27" xmlns="http://www.w3.org/2000/svg" xmlns:xlink="http://www.w3.org/1999/xlink">
<g id="graph0" class="graph" transform="scale(1 1) rotate(0) translate(4 490.27)">
<polygon fill="white" stroke="none" points="-4,4 -4,-490.27 226.81,-490.27 226.81,4 -4,4"/>
<g id="clust1" class="cluster">
<title>clusterpos (4)</title>
<path fill="none" stroke="black" d="M22,-255.13C22,-255.13 175,-255.13 175,-255.13 181,-255.13 187,-261.13 187,-267.13 187,-267.13 187,-364.95 187,-364.95 187,-370.95 181,-376.95 175,-376.95 175,-376.95 22,-376.95 22,-376.95 16,-376.95 10,-370.95 10,-364.95 10,-364.95 10,-267.13 10,-267.13 10,-261.13 16,-255.13 22,-255.13"/>
<text text-anchor="middle" x="159.88" y="-262.33" font-family="Times,serif" font-size="14.00">pos (4)</text>
</g>
<g id="clust2" class="cluster">
<title>cluster2682</title>
<path fill="none" stroke="black" d="M20,-8C20,-8 106,-8 106,-8 112,-8 118,-14 118,-20 118,-20 118,-235.13 118,-235.13 118,-241.13 112,-247.13 106,-247.13 106,-247.13 20,-247.13 20,-247.13 14,-247.13 8,-241.13 8,-235.13 8,-235.13 8,-20 8,-20 8,-14 14,-8 20,-8"/>
<text text-anchor="middle" x="96.5" y="-15.2" font-family="Times,serif" font-size="14.00">2682</text>
</g>
<!-- ν -->
<g id="node1" class="node">
<title>ν</title>
<ellipse fill="none" stroke="black" cx="105" cy="-445.61" rx="42.6" ry="40.66"/>
<text text-anchor="middle" x="105" y="-457.06" font-family="Times,serif" font-size="14.00">ν</text>
<text text-anchor="middle" x="105" y="-440.56" font-family="Times,serif" font-size="14.00">~</text>
<text text-anchor="middle" x="105" y="-424.06" font-family="Times,serif" font-size="14.00">Gamma</text>
</g>
<!-- μ_p -->
<g id="node4" class="node">
<title>μ_p</title>
<ellipse fill="none" stroke="black" cx="150" cy="-328.29" rx="28.81" ry="40.66"/>
<text text-anchor="middle" x="150" y="-339.74" font-family="Times,serif" font-size="14.00">μ_p</text>
<text text-anchor="middle" x="150" y="-323.24" font-family="Times,serif" font-size="14.00">~</text>
<text text-anchor="middle" x="150" y="-306.74" font-family="Times,serif" font-size="14.00">Beta</text>
</g>
<!-- ν&#45;&gt;μ_p -->
<g id="edge1" class="edge">
<title>ν&#45;&gt;μ_p</title>
<path fill="none" stroke="black" d="M119.61,-407.17C123.61,-396.91 128,-385.67 132.16,-375.01"/>
<polygon fill="black" stroke="black" points="135.3,-376.59 135.68,-366 128.78,-374.04 135.3,-376.59"/>
</g>
<!-- μ -->
<g id="node2" class="node">
<title>μ</title>
<ellipse fill="none" stroke="black" cx="194" cy="-445.61" rx="28.81" ry="40.66"/>
<text text-anchor="middle" x="194" y="-457.06" font-family="Times,serif" font-size="14.00">μ</text>
<text text-anchor="middle" x="194" y="-440.56" font-family="Times,serif" font-size="14.00">~</text>
<text text-anchor="middle" x="194" y="-424.06" font-family="Times,serif" font-size="14.00">Beta</text>
</g>
<!-- μ&#45;&gt;μ_p -->
<g id="edge2" class="edge">
<title>μ&#45;&gt;μ_p</title>
<path fill="none" stroke="black" d="M180.56,-409.38C176.46,-398.64 171.89,-386.67 167.56,-375.33"/>
<polygon fill="black" stroke="black" points="170.88,-374.21 164.05,-366.11 164.34,-376.71 170.88,-374.21"/>
</g>
<!-- ν_p -->
<g id="node3" class="node">
<title>ν_p</title>
<ellipse fill="none" stroke="black" cx="61" cy="-328.29" rx="42.6" ry="40.66"/>
<text text-anchor="middle" x="61" y="-339.74" font-family="Times,serif" font-size="14.00">ν_p</text>
<text text-anchor="middle" x="61" y="-323.24" font-family="Times,serif" font-size="14.00">~</text>
<text text-anchor="middle" x="61" y="-306.74" font-family="Times,serif" font-size="14.00">Gamma</text>
</g>
<!-- θ -->
<g id="node5" class="node">
<title>θ</title>
<ellipse fill="none" stroke="black" cx="63" cy="-198.48" rx="28.81" ry="40.66"/>
<text text-anchor="middle" x="63" y="-209.93" font-family="Times,serif" font-size="14.00">θ</text>
<text text-anchor="middle" x="63" y="-193.43" font-family="Times,serif" font-size="14.00">~</text>
<text text-anchor="middle" x="63" y="-176.93" font-family="Times,serif" font-size="14.00">Beta</text>
</g>
<!-- ν_p&#45;&gt;θ -->
<g id="edge3" class="edge">
<title>ν_p&#45;&gt;θ</title>
<path fill="none" stroke="black" d="M61.63,-287.2C61.81,-275.66 62.01,-262.91 62.2,-250.79"/>
<polygon fill="black" stroke="black" points="65.69,-250.99 62.35,-240.94 58.7,-250.88 65.69,-250.99"/>
</g>
<!-- μ_p&#45;&gt;θ -->
<g id="edge4" class="edge">
<title>μ_p&#45;&gt;θ</title>
<path fill="none" stroke="black" d="M134.78,-293.21C128.67,-280.82 121.14,-266.96 113,-255.13 107.39,-246.98 100.69,-238.75 94.05,-231.21"/>
<polygon fill="black" stroke="black" points="96.67,-228.9 87.36,-223.85 91.49,-233.61 96.67,-228.9"/>
</g>
<!-- gs -->
<g id="node6" class="node">
<title>gs</title>
<ellipse fill="lightgrey" stroke="black" cx="63" cy="-81.16" rx="47.38" ry="40.66"/>
<text text-anchor="middle" x="63" y="-92.61" font-family="Times,serif" font-size="14.00">gs</text>
<text text-anchor="middle" x="63" y="-76.11" font-family="Times,serif" font-size="14.00">~</text>
<text text-anchor="middle" x="63" y="-59.61" font-family="Times,serif" font-size="14.00">Binomial</text>
</g>
<!-- θ&#45;&gt;gs -->
<g id="edge5" class="edge">
<title>θ&#45;&gt;gs</title>
<path fill="none" stroke="black" d="M63,-157.47C63,-149.69 63,-141.43 63,-133.34"/>
<polygon fill="black" stroke="black" points="66.5,-133.61 63,-123.61 59.5,-133.61 66.5,-133.61"/>
</g>
</g>
</svg>
