<?xml version="1.0" encoding="UTF-8" standalone="no"?>
<!DOCTYPE svg PUBLIC "-//W3C//DTD SVG 1.1//EN"
 "http://www.w3.org/Graphics/SVG/1.1/DTD/svg11.dtd">
<!-- Generated by graphviz version 11.0.0 (20240519.1550)
 -->
<!-- Pages: 1 -->
<svg width="278pt" height="508pt"
 viewBox="0.00 0.00 278.03 508.50" xmlns="http://www.w3.org/2000/svg" xmlns:xlink="http://www.w3.org/1999/xlink">
<g id="graph0" class="graph" transform="scale(1 1) rotate(0) translate(4 504.5)">
<polygon fill="white" stroke="none" points="-4,4 -4,-504.5 274.03,-504.5 274.03,4 -4,4"/>
<g id="clust1" class="cluster">
<title>clusterpos (4)</title>
<path fill="none" stroke="black" d="M70.03,-262.25C70.03,-262.25 250.03,-262.25 250.03,-262.25 256.03,-262.25 262.03,-268.25 262.03,-274.25 262.03,-274.25 262.03,-376 262.03,-376 262.03,-382 256.03,-388 250.03,-388 250.03,-388 70.03,-388 70.03,-388 64.03,-388 58.03,-382 58.03,-376 58.03,-376 58.03,-274.25 58.03,-274.25 58.03,-268.25 64.03,-262.25 70.03,-262.25"/>
<text text-anchor="middle" x="229.65" y="-270.2" font-family="Times,serif" font-size="14.00">pos (4)</text>
</g>
<g id="clust2" class="cluster">
<title>cluster2682</title>
<path fill="none" stroke="black" d="M103.03,-8C103.03,-8 207.03,-8 207.03,-8 213.03,-8 219.03,-14 219.03,-20 219.03,-20 219.03,-242.25 219.03,-242.25 219.03,-248.25 213.03,-254.25 207.03,-254.25 207.03,-254.25 103.03,-254.25 103.03,-254.25 97.03,-254.25 91.03,-248.25 91.03,-242.25 91.03,-242.25 91.03,-20 91.03,-20 91.03,-14 97.03,-8 103.03,-8"/>
<text text-anchor="middle" x="193.03" y="-15.95" font-family="Times,serif" font-size="14.00">2682</text>
</g>
<!-- ν -->
<g id="node1" class="node">
<title>ν</title>
<ellipse fill="none" stroke="black" cx="50.03" cy="-458.25" rx="50.03" ry="42.25"/>
<text text-anchor="middle" x="50.03" y="-470.82" font-family="Times,serif" font-size="14.00">ν</text>
<text text-anchor="middle" x="50.03" y="-453.57" font-family="Times,serif" font-size="14.00">~</text>
<text text-anchor="middle" x="50.03" y="-436.32" font-family="Times,serif" font-size="14.00">Gamma</text>
</g>
<!-- μ_p -->
<g id="node3" class="node">
<title>μ_p</title>
<ellipse fill="none" stroke="black" cx="101.03" cy="-337.75" rx="34.65" ry="42.25"/>
<text text-anchor="middle" x="101.03" y="-350.32" font-family="Times,serif" font-size="14.00">μ_p</text>
<text text-anchor="middle" x="101.03" y="-333.07" font-family="Times,serif" font-size="14.00">~</text>
<text text-anchor="middle" x="101.03" y="-315.82" font-family="Times,serif" font-size="14.00">Beta</text>
</g>
<!-- ν&#45;&gt;μ_p -->
<g id="edge1" class="edge">
<title>ν&#45;&gt;μ_p</title>
<path fill="none" stroke="black" d="M66.87,-418.12C71.26,-407.9 76.05,-396.79 80.61,-386.19"/>
<polygon fill="black" stroke="black" points="83.73,-387.79 84.47,-377.22 77.3,-385.02 83.73,-387.79"/>
</g>
<!-- μ -->
<g id="node2" class="node">
<title>μ</title>
<ellipse fill="none" stroke="black" cx="153.03" cy="-458.25" rx="34.65" ry="42.25"/>
<text text-anchor="middle" x="153.03" y="-470.82" font-family="Times,serif" font-size="14.00">μ</text>
<text text-anchor="middle" x="153.03" y="-453.57" font-family="Times,serif" font-size="14.00">~</text>
<text text-anchor="middle" x="153.03" y="-436.32" font-family="Times,serif" font-size="14.00">Beta</text>
</g>
<!-- μ&#45;&gt;μ_p -->
<g id="edge2" class="edge">
<title>μ&#45;&gt;μ_p</title>
<path fill="none" stroke="black" d="M136.86,-420.4C132.07,-409.48 126.75,-397.36 121.71,-385.88"/>
<polygon fill="black" stroke="black" points="125.02,-384.71 117.79,-376.96 118.61,-387.52 125.02,-384.71"/>
</g>
<!-- θ -->
<g id="node5" class="node">
<title>θ</title>
<ellipse fill="none" stroke="black" cx="155.03" cy="-204" rx="34.65" ry="42.25"/>
<text text-anchor="middle" x="155.03" y="-216.57" font-family="Times,serif" font-size="14.00">θ</text>
<text text-anchor="middle" x="155.03" y="-199.32" font-family="Times,serif" font-size="14.00">~</text>
<text text-anchor="middle" x="155.03" y="-182.07" font-family="Times,serif" font-size="14.00">Beta</text>
</g>
<!-- μ_p&#45;&gt;θ -->
<g id="edge3" class="edge">
<title>μ_p&#45;&gt;θ</title>
<path fill="none" stroke="black" d="M116.36,-299.35C122.34,-284.76 129.26,-267.86 135.58,-252.44"/>
<polygon fill="black" stroke="black" points="138.72,-254.02 139.27,-243.44 132.24,-251.36 138.72,-254.02"/>
</g>
<!-- ν_p -->
<g id="node4" class="node">
<title>ν_p</title>
<ellipse fill="none" stroke="black" cx="204.03" cy="-337.75" rx="50.03" ry="42.25"/>
<text text-anchor="middle" x="204.03" y="-350.32" font-family="Times,serif" font-size="14.00">ν_p</text>
<text text-anchor="middle" x="204.03" y="-333.07" font-family="Times,serif" font-size="14.00">~</text>
<text text-anchor="middle" x="204.03" y="-315.82" font-family="Times,serif" font-size="14.00">Gamma</text>
</g>
<!-- ν_p&#45;&gt;θ -->
<g id="edge4" class="edge">
<title>ν_p&#45;&gt;θ</title>
<path fill="none" stroke="black" d="M189.33,-297.22C184.2,-283.45 178.4,-267.84 173.04,-253.43"/>
<polygon fill="black" stroke="black" points="176.34,-252.26 169.57,-244.11 169.78,-254.7 176.34,-252.26"/>
</g>
<!-- gs -->
<g id="node6" class="node">
<title>gs</title>
<ellipse fill="lightgrey" stroke="black" cx="155.03" cy="-83.5" rx="55.86" ry="42.25"/>
<text text-anchor="middle" x="155.03" y="-96.07" font-family="Times,serif" font-size="14.00">gs</text>
<text text-anchor="middle" x="155.03" y="-78.82" font-family="Times,serif" font-size="14.00">~</text>
<text text-anchor="middle" x="155.03" y="-61.57" font-family="Times,serif" font-size="14.00">Binomial</text>
</g>
<!-- θ&#45;&gt;gs -->
<g id="edge5" class="edge">
<title>θ&#45;&gt;gs</title>
<path fill="none" stroke="black" d="M155.03,-161.55C155.03,-153.75 155.03,-145.49 155.03,-137.4"/>
<polygon fill="black" stroke="black" points="158.53,-137.64 155.03,-127.64 151.53,-137.64 158.53,-137.64"/>
</g>
</g>
</svg>
