<?xml version="1.0" encoding="UTF-8" standalone="no"?>
<!DOCTYPE svg PUBLIC "-//W3C//DTD SVG 1.1//EN"
 "http://www.w3.org/Graphics/SVG/1.1/DTD/svg11.dtd">
<!-- Generated by graphviz version 11.0.0 (20240519.1550)
 -->
<!-- Pages: 1 -->
<svg width="401pt" height="247pt"
 viewBox="0.00 0.00 400.94 247.13" xmlns="http://www.w3.org/2000/svg" xmlns:xlink="http://www.w3.org/1999/xlink">
<g id="graph0" class="graph" transform="scale(1 1) rotate(0) translate(4 243.13)">
<polygon fill="white" stroke="none" points="-4,4 -4,-243.13 396.94,-243.13 396.94,4 -4,4"/>
<g id="clust1" class="cluster">
<title>clusteralquiladas_obs (348)</title>
<path fill="none" stroke="black" d="M119.45,-8C119.45,-8 237.45,-8 237.45,-8 243.45,-8 249.45,-14 249.45,-20 249.45,-20 249.45,-117.82 249.45,-117.82 249.45,-123.82 243.45,-129.82 237.45,-129.82 237.45,-129.82 119.45,-129.82 119.45,-129.82 113.45,-129.82 107.45,-123.82 107.45,-117.82 107.45,-117.82 107.45,-20 107.45,-20 107.45,-14 113.45,-8 119.45,-8"/>
<text text-anchor="middle" x="184.83" y="-15.2" font-family="Times,serif" font-size="14.00">alquiladas_obs (348)</text>
</g>
<!-- temperatura -->
<g id="node1" class="node">
<title>temperatura</title>
<ellipse fill="none" stroke="black" cx="57.45" cy="-198.48" rx="57.45" ry="40.66"/>
<text text-anchor="middle" x="57.45" y="-209.93" font-family="Times,serif" font-size="14.00">temperatura</text>
<text text-anchor="middle" x="57.45" y="-193.43" font-family="Times,serif" font-size="14.00">~</text>
<text text-anchor="middle" x="57.45" y="-176.93" font-family="Times,serif" font-size="14.00">Normal</text>
</g>
<!-- alquiladas -->
<g id="node4" class="node">
<title>alquiladas</title>
<ellipse fill="lightgrey" stroke="black" cx="178.45" cy="-81.16" rx="63.29" ry="40.66"/>
<text text-anchor="middle" x="178.45" y="-92.61" font-family="Times,serif" font-size="14.00">alquiladas</text>
<text text-anchor="middle" x="178.45" y="-76.11" font-family="Times,serif" font-size="14.00">~</text>
<text text-anchor="middle" x="178.45" y="-59.61" font-family="Times,serif" font-size="14.00">NegBinomial</text>
</g>
<!-- temperatura&#45;&gt;alquiladas -->
<g id="edge1" class="edge">
<title>temperatura&#45;&gt;alquiladas</title>
<path fill="none" stroke="black" d="M91.16,-165.35C104.96,-152.2 121.1,-136.81 135.72,-122.88"/>
<polygon fill="black" stroke="black" points="137.74,-125.79 142.57,-116.36 132.92,-120.72 137.74,-125.79"/>
</g>
<!-- Intercept -->
<g id="node2" class="node">
<title>Intercept</title>
<ellipse fill="none" stroke="black" cx="178.45" cy="-198.48" rx="45.25" ry="40.66"/>
<text text-anchor="middle" x="178.45" y="-209.93" font-family="Times,serif" font-size="14.00">Intercept</text>
<text text-anchor="middle" x="178.45" y="-193.43" font-family="Times,serif" font-size="14.00">~</text>
<text text-anchor="middle" x="178.45" y="-176.93" font-family="Times,serif" font-size="14.00">Normal</text>
</g>
<!-- Intercept&#45;&gt;alquiladas -->
<g id="edge2" class="edge">
<title>Intercept&#45;&gt;alquiladas</title>
<path fill="none" stroke="black" d="M178.45,-157.47C178.45,-149.69 178.45,-141.43 178.45,-133.34"/>
<polygon fill="black" stroke="black" points="181.95,-133.61 178.45,-123.61 174.95,-133.61 181.95,-133.61"/>
</g>
<!-- alquiladas_alpha -->
<g id="node3" class="node">
<title>alquiladas_alpha</title>
<ellipse fill="none" stroke="black" cx="317.45" cy="-198.48" rx="75.48" ry="40.66"/>
<text text-anchor="middle" x="317.45" y="-209.93" font-family="Times,serif" font-size="14.00">alquiladas_alpha</text>
<text text-anchor="middle" x="317.45" y="-193.43" font-family="Times,serif" font-size="14.00">~</text>
<text text-anchor="middle" x="317.45" y="-176.93" font-family="Times,serif" font-size="14.00">HalfCauchy</text>
</g>
<!-- alquiladas_alpha&#45;&gt;alquiladas -->
<g id="edge3" class="edge">
<title>alquiladas_alpha&#45;&gt;alquiladas</title>
<path fill="none" stroke="black" d="M276.87,-163.81C260.63,-150.34 241.83,-134.74 225.03,-120.8"/>
<polygon fill="black" stroke="black" points="227.56,-118.35 217.62,-114.66 223.09,-123.73 227.56,-118.35"/>
</g>
</g>
</svg>
