<?xml version="1.0" encoding="UTF-8" standalone="no"?>
<!DOCTYPE svg PUBLIC "-//W3C//DTD SVG 1.1//EN"
 "http://www.w3.org/Graphics/SVG/1.1/DTD/svg11.dtd">
<!-- Generated by graphviz version 11.0.0 (20240519.1550)
 -->
<!-- Pages: 1 -->
<svg width="277pt" height="364pt"
 viewBox="0.00 0.00 277.46 364.45" xmlns="http://www.w3.org/2000/svg" xmlns:xlink="http://www.w3.org/1999/xlink">
<g id="graph0" class="graph" transform="scale(1 1) rotate(0) translate(4 360.45)">
<polygon fill="white" stroke="none" points="-4,4 -4,-360.45 273.46,-360.45 273.46,4 -4,4"/>
<g id="clust1" class="cluster">
<title>cluster348</title>
<path fill="none" stroke="black" d="M50.01,-8C50.01,-8 132.01,-8 132.01,-8 138.01,-8 144.01,-14 144.01,-20 144.01,-20 144.01,-223.23 144.01,-223.23 144.01,-229.23 138.01,-235.23 132.01,-235.23 132.01,-235.23 50.01,-235.23 50.01,-235.23 44.01,-235.23 38.01,-229.23 38.01,-223.23 38.01,-223.23 38.01,-20 38.01,-20 38.01,-14 44.01,-8 50.01,-8"/>
<text text-anchor="middle" x="125.89" y="-15.2" font-family="Times,serif" font-size="14.00">348</text>
</g>
<!-- β -->
<g id="node1" class="node">
<title>β</title>
<ellipse fill="none" stroke="black" cx="41.01" cy="-315.79" rx="41.01" ry="40.66"/>
<text text-anchor="middle" x="41.01" y="-327.24" font-family="Times,serif" font-size="14.00">β</text>
<text text-anchor="middle" x="41.01" y="-310.74" font-family="Times,serif" font-size="14.00">~</text>
<text text-anchor="middle" x="41.01" y="-294.24" font-family="Times,serif" font-size="14.00">Normal</text>
</g>
<!-- μ -->
<g id="node5" class="node">
<title>μ</title>
<polygon fill="none" stroke="black" points="136.14,-227.23 45.89,-227.23 45.89,-169.73 136.14,-169.73 136.14,-227.23"/>
<text text-anchor="middle" x="91.01" y="-209.93" font-family="Times,serif" font-size="14.00">μ</text>
<text text-anchor="middle" x="91.01" y="-193.43" font-family="Times,serif" font-size="14.00">~</text>
<text text-anchor="middle" x="91.01" y="-176.93" font-family="Times,serif" font-size="14.00">Deterministic</text>
</g>
<!-- β&#45;&gt;μ -->
<g id="edge1" class="edge">
<title>β&#45;&gt;μ</title>
<path fill="none" stroke="black" d="M56.97,-277.99C62.51,-265.22 68.73,-250.87 74.32,-237.97"/>
<polygon fill="black" stroke="black" points="77.48,-239.49 78.24,-228.92 71.06,-236.7 77.48,-239.49"/>
</g>
<!-- α -->
<g id="node2" class="node">
<title>α</title>
<ellipse fill="none" stroke="black" cx="141.01" cy="-315.79" rx="41.01" ry="40.66"/>
<text text-anchor="middle" x="141.01" y="-327.24" font-family="Times,serif" font-size="14.00">α</text>
<text text-anchor="middle" x="141.01" y="-310.74" font-family="Times,serif" font-size="14.00">~</text>
<text text-anchor="middle" x="141.01" y="-294.24" font-family="Times,serif" font-size="14.00">Normal</text>
</g>
<!-- α&#45;&gt;μ -->
<g id="edge2" class="edge">
<title>α&#45;&gt;μ</title>
<path fill="none" stroke="black" d="M125.05,-277.99C119.52,-265.22 113.3,-250.87 107.7,-237.97"/>
<polygon fill="black" stroke="black" points="110.97,-236.7 103.78,-228.92 104.55,-239.49 110.97,-236.7"/>
</g>
<!-- σ -->
<g id="node3" class="node">
<title>σ</title>
<ellipse fill="none" stroke="black" cx="212.01" cy="-198.48" rx="57.45" ry="40.66"/>
<text text-anchor="middle" x="212.01" y="-209.93" font-family="Times,serif" font-size="14.00">σ</text>
<text text-anchor="middle" x="212.01" y="-193.43" font-family="Times,serif" font-size="14.00">~</text>
<text text-anchor="middle" x="212.01" y="-176.93" font-family="Times,serif" font-size="14.00">HalfCauchy</text>
</g>
<!-- y_pred -->
<g id="node4" class="node">
<title>y_pred</title>
<ellipse fill="lightgrey" stroke="black" cx="93.01" cy="-81.16" rx="41.01" ry="40.66"/>
<text text-anchor="middle" x="93.01" y="-92.61" font-family="Times,serif" font-size="14.00">y_pred</text>
<text text-anchor="middle" x="93.01" y="-76.11" font-family="Times,serif" font-size="14.00">~</text>
<text text-anchor="middle" x="93.01" y="-59.61" font-family="Times,serif" font-size="14.00">Normal</text>
</g>
<!-- σ&#45;&gt;y_pred -->
<g id="edge4" class="edge">
<title>σ&#45;&gt;y_pred</title>
<path fill="none" stroke="black" d="M178.55,-165.05C163.44,-150.41 145.55,-133.07 130.05,-118.05"/>
<polygon fill="black" stroke="black" points="132.89,-115.93 123.27,-111.48 128.02,-120.95 132.89,-115.93"/>
</g>
<!-- μ&#45;&gt;y_pred -->
<g id="edge3" class="edge">
<title>μ&#45;&gt;y_pred</title>
<path fill="none" stroke="black" d="M91.5,-169.27C91.69,-158.44 91.91,-145.73 92.12,-133.41"/>
<polygon fill="black" stroke="black" points="95.62,-133.84 92.29,-123.78 88.62,-133.72 95.62,-133.84"/>
</g>
</g>
</svg>
