<?xml version="1.0" encoding="UTF-8" standalone="no"?>
<!DOCTYPE svg PUBLIC "-//W3C//DTD SVG 1.1//EN"
 "http://www.w3.org/Graphics/SVG/1.1/DTD/svg11.dtd">
<!-- Generated by graphviz version 3.0.0 (20220315.2325)
 -->
<!-- Pages: 1 -->
<svg width="347pt" height="233pt"
 viewBox="0.00 0.00 346.60 232.91" xmlns="http://www.w3.org/2000/svg" xmlns:xlink="http://www.w3.org/1999/xlink">
<g id="graph0" class="graph" transform="scale(1 1) rotate(0) translate(4 228.91)">
<polygon fill="white" stroke="transparent" points="-4,4 -4,-228.91 342.6,-228.91 342.6,4 -4,4"/>
<g id="clust1" class="cluster">
<title>clustery_obs (117)</title>
<path fill="none" stroke="black" d="M113.96,-8C113.96,-8 189.96,-8 189.96,-8 195.96,-8 201.96,-14 201.96,-20 201.96,-20 201.96,-109.95 201.96,-109.95 201.96,-115.95 195.96,-121.95 189.96,-121.95 189.96,-121.95 113.96,-121.95 113.96,-121.95 107.96,-121.95 101.96,-115.95 101.96,-109.95 101.96,-109.95 101.96,-20 101.96,-20 101.96,-14 107.96,-8 113.96,-8"/>
<text text-anchor="middle" x="160.96" y="-15.8" font-family="Times,serif" font-size="14.00">y_obs (117)</text>
</g>
<!-- Intercept -->
<g id="node1" class="node">
<title>Intercept</title>
<ellipse fill="none" stroke="black" cx="45.96" cy="-187.43" rx="45.92" ry="37.45"/>
<text text-anchor="middle" x="45.96" y="-198.73" font-family="Times,serif" font-size="14.00">Intercept</text>
<text text-anchor="middle" x="45.96" y="-183.73" font-family="Times,serif" font-size="14.00">~</text>
<text text-anchor="middle" x="45.96" y="-168.73" font-family="Times,serif" font-size="14.00">Normal</text>
</g>
<!-- y -->
<g id="node4" class="node">
<title>y</title>
<ellipse fill="lightgrey" stroke="black" cx="151.96" cy="-76.48" rx="41.94" ry="37.45"/>
<text text-anchor="middle" x="151.96" y="-87.78" font-family="Times,serif" font-size="14.00">y</text>
<text text-anchor="middle" x="151.96" y="-72.78" font-family="Times,serif" font-size="14.00">~</text>
<text text-anchor="middle" x="151.96" y="-57.78" font-family="Times,serif" font-size="14.00">Normal</text>
</g>
<!-- Intercept&#45;&gt;y -->
<g id="edge2" class="edge">
<title>Intercept&#45;&gt;y</title>
<path fill="none" stroke="black" d="M74.09,-157.52C87.46,-143.78 103.56,-127.22 117.65,-112.75"/>
<polygon fill="black" stroke="black" points="120.34,-115 124.8,-105.39 115.32,-110.12 120.34,-115"/>
</g>
<!-- x -->
<g id="node2" class="node">
<title>x</title>
<ellipse fill="none" stroke="black" cx="151.96" cy="-187.43" rx="41.94" ry="37.45"/>
<text text-anchor="middle" x="151.96" y="-198.73" font-family="Times,serif" font-size="14.00">x</text>
<text text-anchor="middle" x="151.96" y="-183.73" font-family="Times,serif" font-size="14.00">~</text>
<text text-anchor="middle" x="151.96" y="-168.73" font-family="Times,serif" font-size="14.00">Normal</text>
</g>
<!-- x&#45;&gt;y -->
<g id="edge1" class="edge">
<title>x&#45;&gt;y</title>
<path fill="none" stroke="black" d="M151.96,-149.85C151.96,-141.67 151.96,-132.89 151.96,-124.37"/>
<polygon fill="black" stroke="black" points="155.46,-124.15 151.96,-114.15 148.46,-124.15 155.46,-124.15"/>
</g>
<!-- y_sigma -->
<g id="node3" class="node">
<title>y_sigma</title>
<ellipse fill="none" stroke="black" cx="274.96" cy="-187.43" rx="63.78" ry="37.45"/>
<text text-anchor="middle" x="274.96" y="-198.73" font-family="Times,serif" font-size="14.00">y_sigma</text>
<text text-anchor="middle" x="274.96" y="-183.73" font-family="Times,serif" font-size="14.00">~</text>
<text text-anchor="middle" x="274.96" y="-168.73" font-family="Times,serif" font-size="14.00">HalfStudentT</text>
</g>
<!-- y_sigma&#45;&gt;y -->
<g id="edge3" class="edge">
<title>y_sigma&#45;&gt;y</title>
<path fill="none" stroke="black" d="M240.37,-155.79C224.37,-141.62 205.35,-124.77 189.05,-110.33"/>
<polygon fill="black" stroke="black" points="191.1,-107.47 181.3,-103.46 186.46,-112.71 191.1,-107.47"/>
</g>
</g>
</svg>
