<?xml version="1.0" encoding="UTF-8" standalone="no"?>
<!DOCTYPE svg PUBLIC "-//W3C//DTD SVG 1.1//EN"
 "http://www.w3.org/Graphics/SVG/1.1/DTD/svg11.dtd">
<!-- Generated by graphviz version 11.0.0 (20240519.1550)
 -->
<!-- Pages: 1 -->
<svg width="401pt" height="247pt"
 viewBox="0.00 0.00 400.74 247.13" xmlns="http://www.w3.org/2000/svg" xmlns:xlink="http://www.w3.org/1999/xlink">
<g id="graph0" class="graph" transform="scale(1 1) rotate(0) translate(4 243.13)">
<polygon fill="white" stroke="none" points="-4,4 -4,-243.13 396.74,-243.13 396.74,4 -4,4"/>
<g id="clust1" class="cluster">
<title>clusteralquiladas_obs (348)</title>
<path fill="none" stroke="black" d="M107.25,-8C107.25,-8 225.25,-8 225.25,-8 231.25,-8 237.25,-14 237.25,-20 237.25,-20 237.25,-117.82 237.25,-117.82 237.25,-123.82 231.25,-129.82 225.25,-129.82 225.25,-129.82 107.25,-129.82 107.25,-129.82 101.25,-129.82 95.25,-123.82 95.25,-117.82 95.25,-117.82 95.25,-20 95.25,-20 95.25,-14 101.25,-8 107.25,-8"/>
<text text-anchor="middle" x="172.63" y="-15.2" font-family="Times,serif" font-size="14.00">alquiladas_obs (348)</text>
</g>
<!-- Intercept -->
<g id="node1" class="node">
<title>Intercept</title>
<ellipse fill="none" stroke="black" cx="45.25" cy="-198.48" rx="45.25" ry="40.66"/>
<text text-anchor="middle" x="45.25" y="-209.93" font-family="Times,serif" font-size="14.00">Intercept</text>
<text text-anchor="middle" x="45.25" y="-193.43" font-family="Times,serif" font-size="14.00">~</text>
<text text-anchor="middle" x="45.25" y="-176.93" font-family="Times,serif" font-size="14.00">Normal</text>
</g>
<!-- alquiladas -->
<g id="node4" class="node">
<title>alquiladas</title>
<ellipse fill="lightgrey" stroke="black" cx="166.25" cy="-81.16" rx="63.29" ry="40.66"/>
<text text-anchor="middle" x="166.25" y="-92.61" font-family="Times,serif" font-size="14.00">alquiladas</text>
<text text-anchor="middle" x="166.25" y="-76.11" font-family="Times,serif" font-size="14.00">~</text>
<text text-anchor="middle" x="166.25" y="-59.61" font-family="Times,serif" font-size="14.00">NegBinomial</text>
</g>
<!-- Intercept&#45;&gt;alquiladas -->
<g id="edge1" class="edge">
<title>Intercept&#45;&gt;alquiladas</title>
<path fill="none" stroke="black" d="M76.1,-168.08C90.53,-154.33 107.95,-137.73 123.61,-122.8"/>
<polygon fill="black" stroke="black" points="125.7,-125.64 130.52,-116.21 120.87,-120.58 125.7,-125.64"/>
</g>
<!-- temperatura -->
<g id="node2" class="node">
<title>temperatura</title>
<ellipse fill="none" stroke="black" cx="166.25" cy="-198.48" rx="57.45" ry="40.66"/>
<text text-anchor="middle" x="166.25" y="-209.93" font-family="Times,serif" font-size="14.00">temperatura</text>
<text text-anchor="middle" x="166.25" y="-193.43" font-family="Times,serif" font-size="14.00">~</text>
<text text-anchor="middle" x="166.25" y="-176.93" font-family="Times,serif" font-size="14.00">Normal</text>
</g>
<!-- temperatura&#45;&gt;alquiladas -->
<g id="edge2" class="edge">
<title>temperatura&#45;&gt;alquiladas</title>
<path fill="none" stroke="black" d="M166.25,-157.47C166.25,-149.69 166.25,-141.43 166.25,-133.34"/>
<polygon fill="black" stroke="black" points="169.75,-133.61 166.25,-123.61 162.75,-133.61 169.75,-133.61"/>
</g>
<!-- alquiladas_alpha -->
<g id="node3" class="node">
<title>alquiladas_alpha</title>
<ellipse fill="none" stroke="black" cx="317.25" cy="-198.48" rx="75.48" ry="40.66"/>
<text text-anchor="middle" x="317.25" y="-209.93" font-family="Times,serif" font-size="14.00">alquiladas_alpha</text>
<text text-anchor="middle" x="317.25" y="-193.43" font-family="Times,serif" font-size="14.00">~</text>
<text text-anchor="middle" x="317.25" y="-176.93" font-family="Times,serif" font-size="14.00">HalfCauchy</text>
</g>
<!-- alquiladas_alpha&#45;&gt;alquiladas -->
<g id="edge3" class="edge">
<title>alquiladas_alpha&#45;&gt;alquiladas</title>
<path fill="none" stroke="black" d="M274.39,-164.74C256.11,-150.78 234.66,-134.4 215.71,-119.93"/>
<polygon fill="black" stroke="black" points="217.91,-117.2 207.84,-113.91 213.66,-122.76 217.91,-117.2"/>
</g>
</g>
</svg>
