<?xml version="1.0" encoding="UTF-8" standalone="no"?>
<!DOCTYPE svg PUBLIC "-//W3C//DTD SVG 1.1//EN"
 "http://www.w3.org/Graphics/SVG/1.1/DTD/svg11.dtd">
<!-- Generated by graphviz version 11.0.0 (20240519.1550)
 -->
<!-- Pages: 1 -->
<svg width="343pt" height="247pt"
 viewBox="0.00 0.00 343.30 247.13" xmlns="http://www.w3.org/2000/svg" xmlns:xlink="http://www.w3.org/1999/xlink">
<g id="graph0" class="graph" transform="scale(1 1) rotate(0) translate(4 243.13)">
<polygon fill="white" stroke="none" points="-4,4 -4,-243.13 339.3,-243.13 339.3,4 -4,4"/>
<g id="clust1" class="cluster">
<title>clustery_obs (117)</title>
<path fill="none" stroke="black" d="M153.29,-8C153.29,-8 227.29,-8 227.29,-8 233.29,-8 239.29,-14 239.29,-20 239.29,-20 239.29,-117.82 239.29,-117.82 239.29,-123.82 233.29,-129.82 227.29,-129.82 227.29,-129.82 153.29,-129.82 153.29,-129.82 147.29,-129.82 141.29,-123.82 141.29,-117.82 141.29,-117.82 141.29,-20 141.29,-20 141.29,-14 147.29,-8 153.29,-8"/>
<text text-anchor="middle" x="198.66" y="-15.2" font-family="Times,serif" font-size="14.00">y_obs (117)</text>
</g>
<!-- y_sigma -->
<g id="node1" class="node">
<title>y_sigma</title>
<ellipse fill="none" stroke="black" cx="63.29" cy="-198.48" rx="63.29" ry="40.66"/>
<text text-anchor="middle" x="63.29" y="-209.93" font-family="Times,serif" font-size="14.00">y_sigma</text>
<text text-anchor="middle" x="63.29" y="-193.43" font-family="Times,serif" font-size="14.00">~</text>
<text text-anchor="middle" x="63.29" y="-176.93" font-family="Times,serif" font-size="14.00">HalfStudentT</text>
</g>
<!-- y -->
<g id="node4" class="node">
<title>y</title>
<ellipse fill="lightgrey" stroke="black" cx="190.29" cy="-81.16" rx="41.01" ry="40.66"/>
<text text-anchor="middle" x="190.29" y="-92.61" font-family="Times,serif" font-size="14.00">y</text>
<text text-anchor="middle" x="190.29" y="-76.11" font-family="Times,serif" font-size="14.00">~</text>
<text text-anchor="middle" x="190.29" y="-59.61" font-family="Times,serif" font-size="14.00">Normal</text>
</g>
<!-- y_sigma&#45;&gt;y -->
<g id="edge1" class="edge">
<title>y_sigma&#45;&gt;y</title>
<path fill="none" stroke="black" d="M99.34,-164.74C115.83,-149.77 135.37,-132.02 152.11,-116.83"/>
<polygon fill="black" stroke="black" points="154.4,-119.47 159.45,-110.16 149.69,-114.29 154.4,-119.47"/>
</g>
<!-- Intercept -->
<g id="node2" class="node">
<title>Intercept</title>
<ellipse fill="none" stroke="black" cx="190.29" cy="-198.48" rx="45.25" ry="40.66"/>
<text text-anchor="middle" x="190.29" y="-209.93" font-family="Times,serif" font-size="14.00">Intercept</text>
<text text-anchor="middle" x="190.29" y="-193.43" font-family="Times,serif" font-size="14.00">~</text>
<text text-anchor="middle" x="190.29" y="-176.93" font-family="Times,serif" font-size="14.00">Normal</text>
</g>
<!-- Intercept&#45;&gt;y -->
<g id="edge2" class="edge">
<title>Intercept&#45;&gt;y</title>
<path fill="none" stroke="black" d="M190.29,-157.47C190.29,-149.69 190.29,-141.43 190.29,-133.34"/>
<polygon fill="black" stroke="black" points="193.79,-133.61 190.29,-123.61 186.79,-133.61 193.79,-133.61"/>
</g>
<!-- x -->
<g id="node3" class="node">
<title>x</title>
<ellipse fill="none" stroke="black" cx="294.29" cy="-198.48" rx="41.01" ry="40.66"/>
<text text-anchor="middle" x="294.29" y="-209.93" font-family="Times,serif" font-size="14.00">x</text>
<text text-anchor="middle" x="294.29" y="-193.43" font-family="Times,serif" font-size="14.00">~</text>
<text text-anchor="middle" x="294.29" y="-176.93" font-family="Times,serif" font-size="14.00">Normal</text>
</g>
<!-- x&#45;&gt;y -->
<g id="edge3" class="edge">
<title>x&#45;&gt;y</title>
<path fill="none" stroke="black" d="M267.23,-167.48C254.23,-153.06 238.51,-135.63 224.67,-120.28"/>
<polygon fill="black" stroke="black" points="227.51,-118.21 218.22,-113.13 222.32,-122.9 227.51,-118.21"/>
</g>
</g>
</svg>
