<?xml version="1.0" encoding="UTF-8" standalone="no"?>
<!DOCTYPE svg PUBLIC "-//W3C//DTD SVG 1.1//EN"
 "http://www.w3.org/Graphics/SVG/1.1/DTD/svg11.dtd">
<!-- Generated by graphviz version 3.0.0 (20220315.2325)
 -->
<!-- Pages: 1 -->
<svg width="953pt" height="360pt"
 viewBox="0.00 0.00 953.41 359.88" xmlns="http://www.w3.org/2000/svg" xmlns:xlink="http://www.w3.org/1999/xlink">
<g id="graph0" class="graph" transform="scale(1 1) rotate(0) translate(4 355.88)">
<polygon fill="white" stroke="transparent" points="-4,4 -4,-355.88 949.41,-355.88 949.41,4 -4,4"/>
<g id="clust1" class="cluster">
<title>clusterg__factor_dim (3)</title>
<path fill="none" stroke="black" d="M460.72,-129.95C460.72,-129.95 670.72,-129.95 670.72,-129.95 676.72,-129.95 682.72,-135.95 682.72,-141.95 682.72,-141.95 682.72,-331.88 682.72,-331.88 682.72,-337.88 676.72,-343.88 670.72,-343.88 670.72,-343.88 460.72,-343.88 460.72,-343.88 454.72,-343.88 448.72,-337.88 448.72,-331.88 448.72,-331.88 448.72,-141.95 448.72,-141.95 448.72,-135.95 454.72,-129.95 460.72,-129.95"/>
<text text-anchor="middle" x="624.72" y="-137.75" font-family="Times,serif" font-size="14.00">g__factor_dim (3)</text>
</g>
<g id="clust2" class="cluster">
<title>clustery_obs (117)</title>
<path fill="none" stroke="black" d="M274.72,-8C274.72,-8 350.72,-8 350.72,-8 356.72,-8 362.72,-14 362.72,-20 362.72,-20 362.72,-109.95 362.72,-109.95 362.72,-115.95 356.72,-121.95 350.72,-121.95 350.72,-121.95 274.72,-121.95 274.72,-121.95 268.72,-121.95 262.72,-115.95 262.72,-109.95 262.72,-109.95 262.72,-20 262.72,-20 262.72,-14 268.72,-8 274.72,-8"/>
<text text-anchor="middle" x="321.72" y="-15.8" font-family="Times,serif" font-size="14.00">y_obs (117)</text>
</g>
<!-- x -->
<g id="node1" class="node">
<title>x</title>
<ellipse fill="none" stroke="black" cx="41.72" cy="-187.45" rx="41.94" ry="37.45"/>
<text text-anchor="middle" x="41.72" y="-198.75" font-family="Times,serif" font-size="14.00">x</text>
<text text-anchor="middle" x="41.72" y="-183.75" font-family="Times,serif" font-size="14.00">~</text>
<text text-anchor="middle" x="41.72" y="-168.75" font-family="Times,serif" font-size="14.00">Normal</text>
</g>
<!-- y -->
<g id="node11" class="node">
<title>y</title>
<ellipse fill="lightgrey" stroke="black" cx="312.72" cy="-76.48" rx="41.94" ry="37.45"/>
<text text-anchor="middle" x="312.72" y="-87.78" font-family="Times,serif" font-size="14.00">y</text>
<text text-anchor="middle" x="312.72" y="-72.78" font-family="Times,serif" font-size="14.00">~</text>
<text text-anchor="middle" x="312.72" y="-57.78" font-family="Times,serif" font-size="14.00">Normal</text>
</g>
<!-- x&#45;&gt;y -->
<g id="edge5" class="edge">
<title>x&#45;&gt;y</title>
<path fill="none" stroke="black" d="M63.51,-155.11C71.41,-145.78 81.04,-136.35 91.72,-129.95 144.04,-98.61 213.8,-85.99 260.83,-80.9"/>
<polygon fill="black" stroke="black" points="261.2,-84.38 270.8,-79.9 260.5,-77.42 261.2,-84.38"/>
</g>
<!-- z -->
<g id="node2" class="node">
<title>z</title>
<ellipse fill="none" stroke="black" cx="142.72" cy="-187.45" rx="41.94" ry="37.45"/>
<text text-anchor="middle" x="142.72" y="-198.75" font-family="Times,serif" font-size="14.00">z</text>
<text text-anchor="middle" x="142.72" y="-183.75" font-family="Times,serif" font-size="14.00">~</text>
<text text-anchor="middle" x="142.72" y="-168.75" font-family="Times,serif" font-size="14.00">Normal</text>
</g>
<!-- z&#45;&gt;y -->
<g id="edge6" class="edge">
<title>z&#45;&gt;y</title>
<path fill="none" stroke="black" d="M166.05,-155.95C174.1,-146.78 183.65,-137.23 193.72,-129.95 215.01,-114.56 241.54,-102.32 264.14,-93.54"/>
<polygon fill="black" stroke="black" points="265.43,-96.79 273.56,-89.99 262.97,-90.24 265.43,-96.79"/>
</g>
<!-- Intercept -->
<g id="node3" class="node">
<title>Intercept</title>
<ellipse fill="none" stroke="black" cx="248.72" cy="-187.45" rx="45.92" ry="37.45"/>
<text text-anchor="middle" x="248.72" y="-198.75" font-family="Times,serif" font-size="14.00">Intercept</text>
<text text-anchor="middle" x="248.72" y="-183.75" font-family="Times,serif" font-size="14.00">~</text>
<text text-anchor="middle" x="248.72" y="-168.75" font-family="Times,serif" font-size="14.00">Normal</text>
</g>
<!-- Intercept&#45;&gt;y -->
<g id="edge7" class="edge">
<title>Intercept&#45;&gt;y</title>
<path fill="none" stroke="black" d="M268.1,-153.46C274.48,-142.59 281.67,-130.35 288.38,-118.93"/>
<polygon fill="black" stroke="black" points="291.58,-120.38 293.63,-109.98 285.55,-116.83 291.58,-120.38"/>
</g>
<!-- 1|g_sigma -->
<g id="node4" class="node">
<title>1|g_sigma</title>
<ellipse fill="none" stroke="black" cx="751.72" cy="-298.41" rx="58.88" ry="37.45"/>
<text text-anchor="middle" x="751.72" y="-309.71" font-family="Times,serif" font-size="14.00">1|g_sigma</text>
<text text-anchor="middle" x="751.72" y="-294.71" font-family="Times,serif" font-size="14.00">~</text>
<text text-anchor="middle" x="751.72" y="-279.71" font-family="Times,serif" font-size="14.00">HalfNormal</text>
</g>
<!-- 1|g -->
<g id="node10" class="node">
<title>1|g</title>
<polygon fill="none" stroke="black" points="552.22,-213.95 461.22,-213.95 461.22,-160.95 552.22,-160.95 552.22,-213.95"/>
<text text-anchor="middle" x="506.72" y="-198.75" font-family="Times,serif" font-size="14.00">1|g</text>
<text text-anchor="middle" x="506.72" y="-183.75" font-family="Times,serif" font-size="14.00">~</text>
<text text-anchor="middle" x="506.72" y="-168.75" font-family="Times,serif" font-size="14.00">Deterministic</text>
</g>
<!-- 1|g_sigma&#45;&gt;1|g -->
<g id="edge2" class="edge">
<title>1|g_sigma&#45;&gt;1|g</title>
<path fill="none" stroke="black" d="M709.71,-272.15C702.19,-268.12 694.33,-264.2 686.72,-260.93 637.13,-239.6 620.24,-246.42 570.72,-224.93 566.4,-223.06 562,-220.97 557.63,-218.76"/>
<polygon fill="black" stroke="black" points="559.23,-215.65 548.74,-214.11 555.98,-221.85 559.23,-215.65"/>
</g>
<!-- y_sigma -->
<g id="node5" class="node">
<title>y_sigma</title>
<ellipse fill="none" stroke="black" cx="376.72" cy="-187.45" rx="63.78" ry="37.45"/>
<text text-anchor="middle" x="376.72" y="-198.75" font-family="Times,serif" font-size="14.00">y_sigma</text>
<text text-anchor="middle" x="376.72" y="-183.75" font-family="Times,serif" font-size="14.00">~</text>
<text text-anchor="middle" x="376.72" y="-168.75" font-family="Times,serif" font-size="14.00">HalfStudentT</text>
</g>
<!-- y_sigma&#45;&gt;y -->
<g id="edge9" class="edge">
<title>y_sigma&#45;&gt;y</title>
<path fill="none" stroke="black" d="M356.29,-151.67C350.18,-141.26 343.41,-129.73 337.07,-118.94"/>
<polygon fill="black" stroke="black" points="339.95,-116.93 331.86,-110.08 333.91,-120.47 339.95,-116.93"/>
</g>
<!-- x|g_sigma -->
<g id="node6" class="node">
<title>x|g_sigma</title>
<ellipse fill="none" stroke="black" cx="886.72" cy="-298.41" rx="58.88" ry="37.45"/>
<text text-anchor="middle" x="886.72" y="-309.71" font-family="Times,serif" font-size="14.00">x|g_sigma</text>
<text text-anchor="middle" x="886.72" y="-294.71" font-family="Times,serif" font-size="14.00">~</text>
<text text-anchor="middle" x="886.72" y="-279.71" font-family="Times,serif" font-size="14.00">HalfNormal</text>
</g>
<!-- x|g -->
<g id="node9" class="node">
<title>x|g</title>
<polygon fill="none" stroke="black" points="670.22,-213.95 579.22,-213.95 579.22,-160.95 670.22,-160.95 670.22,-213.95"/>
<text text-anchor="middle" x="624.72" y="-198.75" font-family="Times,serif" font-size="14.00">x|g</text>
<text text-anchor="middle" x="624.72" y="-183.75" font-family="Times,serif" font-size="14.00">~</text>
<text text-anchor="middle" x="624.72" y="-168.75" font-family="Times,serif" font-size="14.00">Deterministic</text>
</g>
<!-- x|g_sigma&#45;&gt;x|g -->
<g id="edge4" class="edge">
<title>x|g_sigma&#45;&gt;x|g</title>
<path fill="none" stroke="black" d="M843.57,-272.75C835.73,-268.6 827.55,-264.5 819.72,-260.93 773.66,-239.96 719.6,-220.23 680.1,-206.67"/>
<polygon fill="black" stroke="black" points="680.98,-203.27 670.38,-203.36 678.72,-209.9 680.98,-203.27"/>
</g>
<!-- x|g_offset -->
<g id="node7" class="node">
<title>x|g_offset</title>
<ellipse fill="none" stroke="black" cx="624.72" cy="-298.41" rx="50.41" ry="37.45"/>
<text text-anchor="middle" x="624.72" y="-309.71" font-family="Times,serif" font-size="14.00">x|g_offset</text>
<text text-anchor="middle" x="624.72" y="-294.71" font-family="Times,serif" font-size="14.00">~</text>
<text text-anchor="middle" x="624.72" y="-279.71" font-family="Times,serif" font-size="14.00">Normal</text>
</g>
<!-- x|g_offset&#45;&gt;x|g -->
<g id="edge3" class="edge">
<title>x|g_offset&#45;&gt;x|g</title>
<path fill="none" stroke="black" d="M624.72,-260.82C624.72,-249.09 624.72,-236.1 624.72,-224.41"/>
<polygon fill="black" stroke="black" points="628.22,-224.11 624.72,-214.11 621.22,-224.11 628.22,-224.11"/>
</g>
<!-- 1|g_offset -->
<g id="node8" class="node">
<title>1|g_offset</title>
<ellipse fill="none" stroke="black" cx="506.72" cy="-298.41" rx="50.41" ry="37.45"/>
<text text-anchor="middle" x="506.72" y="-309.71" font-family="Times,serif" font-size="14.00">1|g_offset</text>
<text text-anchor="middle" x="506.72" y="-294.71" font-family="Times,serif" font-size="14.00">~</text>
<text text-anchor="middle" x="506.72" y="-279.71" font-family="Times,serif" font-size="14.00">Normal</text>
</g>
<!-- 1|g_offset&#45;&gt;1|g -->
<g id="edge1" class="edge">
<title>1|g_offset&#45;&gt;1|g</title>
<path fill="none" stroke="black" d="M506.72,-260.82C506.72,-249.09 506.72,-236.1 506.72,-224.41"/>
<polygon fill="black" stroke="black" points="510.22,-224.11 506.72,-214.11 503.22,-224.11 510.22,-224.11"/>
</g>
<!-- x|g&#45;&gt;y -->
<g id="edge10" class="edge">
<title>x|g&#45;&gt;y</title>
<path fill="none" stroke="black" d="M602.15,-160.87C591.03,-149.77 576.79,-137.6 561.72,-129.95 498.56,-97.92 416.85,-85.43 364.6,-80.56"/>
<polygon fill="black" stroke="black" points="364.83,-77.07 354.56,-79.69 364.22,-84.04 364.83,-77.07"/>
</g>
<!-- 1|g&#45;&gt;y -->
<g id="edge8" class="edge">
<title>1|g&#45;&gt;y</title>
<path fill="none" stroke="black" d="M485.08,-160.68C475.15,-150.08 462.71,-138.34 449.72,-129.95 422.85,-112.6 389.38,-99.65 362.24,-90.95"/>
<polygon fill="black" stroke="black" points="363.14,-87.56 352.56,-87.94 361.07,-94.25 363.14,-87.56"/>
</g>
</g>
</svg>
