<?xml version="1.0" encoding="UTF-8" standalone="no"?>
<!DOCTYPE svg PUBLIC "-//W3C//DTD SVG 1.1//EN"
 "http://www.w3.org/Graphics/SVG/1.1/DTD/svg11.dtd">
<!-- Generated by graphviz version 11.0.0 (20240519.1550)
 -->
<!-- Pages: 1 -->
<svg width="401pt" height="247pt"
 viewBox="0.00 0.00 400.71 247.13" xmlns="http://www.w3.org/2000/svg" xmlns:xlink="http://www.w3.org/1999/xlink">
<g id="graph0" class="graph" transform="scale(1 1) rotate(0) translate(4 243.13)">
<polygon fill="white" stroke="none" points="-4,4 -4,-243.13 396.71,-243.13 396.71,4 -4,4"/>
<g id="clust1" class="cluster">
<title>clusteralquiladas_obs (348)</title>
<path fill="none" stroke="black" d="M125.25,-8C125.25,-8 243.25,-8 243.25,-8 249.25,-8 255.25,-14 255.25,-20 255.25,-20 255.25,-117.82 255.25,-117.82 255.25,-123.82 249.25,-129.82 243.25,-129.82 243.25,-129.82 125.25,-129.82 125.25,-129.82 119.25,-129.82 113.25,-123.82 113.25,-117.82 113.25,-117.82 113.25,-20 113.25,-20 113.25,-14 119.25,-8 125.25,-8"/>
<text text-anchor="middle" x="190.63" y="-15.2" font-family="Times,serif" font-size="14.00">alquiladas_obs (348)</text>
</g>
<!-- Intercept -->
<g id="node1" class="node">
<title>Intercept</title>
<ellipse fill="none" stroke="black" cx="45.25" cy="-198.48" rx="45.25" ry="40.66"/>
<text text-anchor="middle" x="45.25" y="-209.93" font-family="Times,serif" font-size="14.00">Intercept</text>
<text text-anchor="middle" x="45.25" y="-193.43" font-family="Times,serif" font-size="14.00">~</text>
<text text-anchor="middle" x="45.25" y="-176.93" font-family="Times,serif" font-size="14.00">Normal</text>
</g>
<!-- alquiladas -->
<g id="node4" class="node">
<title>alquiladas</title>
<ellipse fill="lightgrey" stroke="black" cx="184.25" cy="-81.16" rx="63.29" ry="40.66"/>
<text text-anchor="middle" x="184.25" y="-92.61" font-family="Times,serif" font-size="14.00">alquiladas</text>
<text text-anchor="middle" x="184.25" y="-76.11" font-family="Times,serif" font-size="14.00">~</text>
<text text-anchor="middle" x="184.25" y="-59.61" font-family="Times,serif" font-size="14.00">NegBinomial</text>
</g>
<!-- Intercept&#45;&gt;alquiladas -->
<g id="edge1" class="edge">
<title>Intercept&#45;&gt;alquiladas</title>
<path fill="none" stroke="black" d="M78.2,-170.15C95.81,-155.53 117.8,-137.29 137.19,-121.21"/>
<polygon fill="black" stroke="black" points="139.26,-124.04 144.72,-114.96 134.79,-118.65 139.26,-124.04"/>
</g>
<!-- alquiladas_alpha -->
<g id="node2" class="node">
<title>alquiladas_alpha</title>
<ellipse fill="none" stroke="black" cx="184.25" cy="-198.48" rx="75.48" ry="40.66"/>
<text text-anchor="middle" x="184.25" y="-209.93" font-family="Times,serif" font-size="14.00">alquiladas_alpha</text>
<text text-anchor="middle" x="184.25" y="-193.43" font-family="Times,serif" font-size="14.00">~</text>
<text text-anchor="middle" x="184.25" y="-176.93" font-family="Times,serif" font-size="14.00">HalfCauchy</text>
</g>
<!-- alquiladas_alpha&#45;&gt;alquiladas -->
<g id="edge2" class="edge">
<title>alquiladas_alpha&#45;&gt;alquiladas</title>
<path fill="none" stroke="black" d="M184.25,-157.47C184.25,-149.69 184.25,-141.43 184.25,-133.34"/>
<polygon fill="black" stroke="black" points="187.75,-133.61 184.25,-123.61 180.75,-133.61 187.75,-133.61"/>
</g>
<!-- temperatura -->
<g id="node3" class="node">
<title>temperatura</title>
<ellipse fill="none" stroke="black" cx="335.25" cy="-198.48" rx="57.45" ry="40.66"/>
<text text-anchor="middle" x="335.25" y="-209.93" font-family="Times,serif" font-size="14.00">temperatura</text>
<text text-anchor="middle" x="335.25" y="-193.43" font-family="Times,serif" font-size="14.00">~</text>
<text text-anchor="middle" x="335.25" y="-176.93" font-family="Times,serif" font-size="14.00">Normal</text>
</g>
<!-- temperatura&#45;&gt;alquiladas -->
<g id="edge3" class="edge">
<title>temperatura&#45;&gt;alquiladas</title>
<path fill="none" stroke="black" d="M296.76,-168.08C277.5,-153.37 253.98,-135.41 233.43,-119.71"/>
<polygon fill="black" stroke="black" points="235.8,-117.12 225.73,-113.83 231.55,-122.68 235.8,-117.12"/>
</g>
</g>
</svg>
